<?xml version="1.0" encoding="utf-8"?>
<svg width="500px" height="500.00003px" viewBox="0 0 500 500.00003" version="1.1" xmlns:xlink="http://www.w3.org/1999/xlink" xmlns="http://www.w3.org/2000/svg">
  <defs>
    <rect width="500" height="500" id="artboard_1" />
    <clipPath id="clip_1">
      <use xlink:href="#artboard_1" clip-rule="evenodd" />
    </clipPath>
  </defs>
  <g id="wathqny-icon" clip-path="url(#clip_1)">
    <use xlink:href="#artboard_1" stroke="none" fill="#FFFFFF" fill-opacity="0" />
    <g id="Group" transform="translate(78 55.99993)" artboard="517916ae-1f92-46eb-9356-20faa1c92fda">
      <g id="ق" fill="#0BAE16">
        <path d="M212.602 11.299Q216.931 22.362 216.931 31.02Q216.931 55.551 190.957 57.475Q180.856 57.475 170.274 52.184Q165.464 41.602 165.464 32.463Q165.464 6.96999 191.919 6.48897Q202.02 6.48897 212.602 11.299ZM285.233 11.299Q289.562 22.362 289.562 31.02Q289.562 55.551 263.588 57.475Q253.487 57.475 242.905 52.184Q238.095 41.602 238.095 32.463Q238.095 6.96999 264.55 6.48897Q274.651 6.48897 285.233 11.299ZM19.24 255.647Q19.24 229.192 27.1765 210.433Q35.113 191.674 46.4165 181.573Q57.72 171.472 67.821 171.472Q75.998 171.472 81.289 176.763Q72.631 187.826 66.378 205.863Q60.125 223.901 60.125 247.951Q60.125 286.912 86.8205 304.949Q113.516 322.987 164.021 322.987Q225.589 322.987 253.968 302.063Q282.347 281.14 287.157 246.508Q266.955 257.571 234.247 257.571Q194.324 257.571 168.11 233.521Q141.895 209.471 141.895 170.51Q141.895 132.03 165.945 105.575Q189.995 79.12 227.994 79.12Q272.246 79.12 298.941 116.878Q325.637 154.637 325.637 220.534Q325.637 297.975 286.917 334.531Q248.196 371.087 163.059 371.087Q88.985 371.087 54.1125 341.265Q19.24 311.443 19.24 255.647ZM175.565 170.991Q175.565 211.395 234.728 213.319Q265.993 213.319 287.157 202.256Q285.233 165.7 268.879 145.257Q252.525 124.815 226.07 124.815Q203.944 124.815 189.755 138.283Q175.565 151.751 175.565 170.991Z" />
      </g>
      <g id="docs-Copy-2" transform="translate(155.29608 103.072655)">
        <path d="M0 71.4637C0 31.9954 31.9954 0 71.4637 0C110.932 0 142.927 31.9954 142.927 71.4637C142.927 110.932 110.932 142.927 71.4637 142.927C31.9954 142.927 0 110.932 0 71.4637Z" id="Oval" fill="#0BAE16" fill-rule="evenodd" stroke="none" />
        <path d="M31.6416 28.5854L111.286 28.5854Q111.458 28.5854 111.629 28.5938Q111.801 28.6022 111.972 28.6191Q112.143 28.6359 112.313 28.6611Q112.483 28.6863 112.651 28.7199Q112.82 28.7534 112.986 28.7951Q113.153 28.8369 113.317 28.8867Q113.482 28.9366 113.644 28.9945Q113.805 29.0524 113.964 29.1181Q114.123 29.1839 114.278 29.2573Q114.433 29.3308 114.585 29.4118Q114.737 29.4928 114.884 29.5811Q115.031 29.6695 115.174 29.7649Q115.317 29.8604 115.455 29.9627Q115.593 30.0651 115.726 30.1741Q115.859 30.2831 115.986 30.3985Q116.113 30.5138 116.235 30.6353Q116.356 30.7568 116.472 30.8841Q116.587 31.0114 116.696 31.1443Q116.805 31.2771 116.907 31.4151Q117.01 31.5531 117.105 31.6959Q117.201 31.8388 117.289 31.9862Q117.377 32.1335 117.458 32.2851Q117.539 32.4366 117.613 32.5919Q117.686 32.7472 117.752 32.906Q117.818 33.0647 117.876 33.2265Q117.933 33.3882 117.983 33.5527Q118.033 33.7171 118.075 33.8838Q118.117 34.0504 118.15 34.2189Q118.184 34.3874 118.209 34.5574Q118.234 34.7274 118.251 34.8983Q118.268 35.0693 118.276 35.2409Q118.285 35.4126 118.285 35.5844L118.285 36.372Q118.285 36.5438 118.276 36.7154Q118.268 36.887 118.251 37.058Q118.234 37.229 118.209 37.3989Q118.184 37.5689 118.15 37.7374Q118.117 37.9059 118.075 38.0726Q118.033 38.2392 117.983 38.4037Q117.933 38.5681 117.876 38.7298Q117.818 38.8916 117.752 39.0504Q117.686 39.2091 117.613 39.3644Q117.539 39.5197 117.458 39.6713Q117.377 39.8228 117.289 39.9702Q117.201 40.1175 117.105 40.2604Q117.01 40.4033 116.907 40.5413Q116.805 40.6793 116.696 40.8121Q116.587 40.9449 116.472 41.0722Q116.356 41.1995 116.235 41.321Q116.113 41.4425 115.986 41.5579Q115.859 41.6733 115.726 41.7823Q115.593 41.8913 115.455 41.9936Q115.317 42.096 115.174 42.1914Q115.031 42.2869 114.884 42.3752Q114.737 42.4635 114.585 42.5445Q114.433 42.6255 114.278 42.699Q114.123 42.7724 113.964 42.8382Q113.805 42.9039 113.644 42.9618Q113.482 43.0197 113.317 43.0696Q113.153 43.1195 112.986 43.1612Q112.82 43.2029 112.651 43.2365Q112.483 43.27 112.313 43.2952Q112.143 43.3204 111.972 43.3373Q111.801 43.3541 111.629 43.3625Q111.458 43.371 111.286 43.371L31.6416 43.371Q31.4698 43.371 31.2982 43.3625Q31.1266 43.3541 30.9556 43.3373Q30.7846 43.3204 30.6147 43.2952Q30.4447 43.27 30.2762 43.2365Q30.1077 43.2029 29.941 43.1612Q29.7744 43.1194 29.6099 43.0696Q29.4455 43.0197 29.2837 42.9618Q29.122 42.9039 28.9632 42.8382Q28.8045 42.7724 28.6492 42.699Q28.4939 42.6255 28.3423 42.5445Q28.1908 42.4635 28.0434 42.3752Q27.8961 42.2869 27.7532 42.1914Q27.6103 42.096 27.4723 41.9936Q27.3343 41.8913 27.2015 41.7823Q27.0687 41.6733 26.9414 41.5579Q26.8141 41.4425 26.6926 41.321Q26.5711 41.1995 26.4557 41.0722Q26.3403 40.9449 26.2313 40.8121Q26.1223 40.6793 26.02 40.5413Q25.9176 40.4033 25.8222 40.2604Q25.7267 40.1175 25.6384 39.9702Q25.5501 39.8228 25.4691 39.6713Q25.3881 39.5197 25.3146 39.3644Q25.2412 39.2091 25.1754 39.0504Q25.1097 38.8916 25.0518 38.7298Q24.9939 38.5681 24.944 38.4037Q24.8941 38.2392 24.8524 38.0726Q24.8106 37.9059 24.7771 37.7374Q24.7436 37.5689 24.7184 37.3989Q24.6932 37.229 24.6763 37.058Q24.6595 36.887 24.6511 36.7154Q24.6426 36.5438 24.6426 36.372L24.6426 35.5844Q24.6426 35.4126 24.6511 35.2409Q24.6595 35.0693 24.6763 34.8983Q24.6932 34.7274 24.7184 34.5574Q24.7436 34.3874 24.7771 34.2189Q24.8106 34.0504 24.8524 33.8838Q24.8941 33.7171 24.944 33.5527Q24.9939 33.3882 25.0518 33.2265Q25.1097 33.0647 25.1754 32.906Q25.2412 32.7472 25.3146 32.5919Q25.3881 32.4366 25.4691 32.2851Q25.5501 32.1335 25.6384 31.9862Q25.7267 31.8388 25.8222 31.6959Q25.9176 31.5531 26.02 31.4151Q26.1223 31.2771 26.2313 31.1443Q26.3403 31.0114 26.4557 30.8841Q26.5711 30.7568 26.6926 30.6353Q26.8141 30.5138 26.9414 30.3985Q27.0687 30.2831 27.2015 30.1741Q27.3343 30.0651 27.4723 29.9627Q27.6103 29.8604 27.7532 29.7649Q27.8961 29.6695 28.0434 29.5811Q28.1908 29.4928 28.3423 29.4118Q28.4939 29.3308 28.6492 29.2573Q28.8045 29.1839 28.9632 29.1181Q29.122 29.0524 29.2837 28.9945Q29.4455 28.9366 29.6099 28.8867Q29.7744 28.8369 29.941 28.7951Q30.1077 28.7534 30.2762 28.7199Q30.4447 28.6863 30.6147 28.6611Q30.7846 28.6359 30.9556 28.6191Q31.1266 28.6022 31.2982 28.5938Q31.4698 28.5854 31.6416 28.5854Z" id="Rectangle-2" fill="#FFFFFF" fill-rule="evenodd" stroke="none" />
        <path d="M31.6416 63.0851L111.286 63.0851Q111.458 63.0851 111.629 63.0936Q111.801 63.102 111.972 63.1188Q112.143 63.1357 112.313 63.1609Q112.483 63.1861 112.651 63.2196Q112.82 63.2531 112.986 63.2949Q113.153 63.3366 113.317 63.3865Q113.482 63.4364 113.644 63.4943Q113.805 63.5521 113.964 63.6179Q114.123 63.6836 114.278 63.7571Q114.433 63.8306 114.585 63.9116Q114.737 63.9925 114.884 64.0809Q115.031 64.1692 115.174 64.2647Q115.317 64.3601 115.455 64.4625Q115.593 64.5648 115.726 64.6738Q115.859 64.7828 115.986 64.8982Q116.113 65.0136 116.235 65.1351Q116.356 65.2566 116.472 65.3839Q116.587 65.5112 116.696 65.644Q116.805 65.7768 116.907 65.9148Q117.01 66.0528 117.105 66.1957Q117.201 66.3386 117.289 66.4859Q117.377 66.6333 117.458 66.7848Q117.539 66.9363 117.613 67.0917Q117.686 67.247 117.752 67.4057Q117.818 67.5645 117.876 67.7262Q117.933 67.888 117.983 68.0524Q118.033 68.2169 118.075 68.3835Q118.117 68.5502 118.15 68.7187Q118.184 68.8872 118.209 69.0572Q118.234 69.2271 118.251 69.3981Q118.268 69.5691 118.276 69.7407Q118.285 69.9123 118.285 70.0841L118.285 70.8717Q118.285 71.0435 118.276 71.2151Q118.268 71.3868 118.251 71.5577Q118.234 71.7287 118.209 71.8987Q118.184 72.0686 118.15 72.2372Q118.117 72.4057 118.075 72.5723Q118.033 72.739 117.983 72.9034Q117.933 73.0678 117.876 73.2296Q117.818 73.3914 117.752 73.5501Q117.686 73.7089 117.613 73.8642Q117.539 74.0195 117.458 74.171Q117.377 74.3226 117.289 74.4699Q117.201 74.6173 117.105 74.7602Q117.01 74.903 116.907 75.041Q116.805 75.179 116.696 75.3118Q116.587 75.4447 116.472 75.572Q116.356 75.6993 116.235 75.8208Q116.113 75.9423 115.986 76.0576Q115.859 76.173 115.726 76.282Q115.593 76.391 115.455 76.4934Q115.317 76.5957 115.174 76.6912Q115.031 76.7866 114.884 76.875Q114.737 76.9633 114.585 77.0443Q114.433 77.1253 114.278 77.1987Q114.123 77.2722 113.964 77.338Q113.805 77.4037 113.644 77.4616Q113.482 77.5195 113.317 77.5694Q113.153 77.6192 112.986 77.661Q112.82 77.7027 112.651 77.7362Q112.483 77.7698 112.313 77.795Q112.143 77.8202 111.972 77.837Q111.801 77.8539 111.629 77.8623Q111.458 77.8707 111.286 77.8707L31.6416 77.8707Q31.4698 77.8707 31.2982 77.8623Q31.1266 77.8539 30.9556 77.837Q30.7846 77.8202 30.6147 77.795Q30.4447 77.7698 30.2762 77.7362Q30.1077 77.7027 29.941 77.661Q29.7744 77.6192 29.6099 77.5694Q29.4455 77.5195 29.2837 77.4616Q29.122 77.4037 28.9632 77.338Q28.8045 77.2722 28.6492 77.1988Q28.4939 77.1253 28.3423 77.0443Q28.1908 76.9633 28.0434 76.875Q27.8961 76.7866 27.7532 76.6912Q27.6103 76.5957 27.4723 76.4934Q27.3343 76.391 27.2015 76.282Q27.0687 76.173 26.9414 76.0576Q26.8141 75.9423 26.6926 75.8208Q26.5711 75.6993 26.4557 75.572Q26.3403 75.4447 26.2313 75.3118Q26.1223 75.179 26.02 75.041Q25.9176 74.903 25.8222 74.7602Q25.7267 74.6173 25.6384 74.4699Q25.5501 74.3226 25.4691 74.171Q25.3881 74.0195 25.3146 73.8642Q25.2412 73.7089 25.1754 73.5501Q25.1097 73.3914 25.0518 73.2296Q24.9939 73.0678 24.944 72.9034Q24.8941 72.739 24.8524 72.5723Q24.8106 72.4057 24.7771 72.2372Q24.7436 72.0686 24.7184 71.8987Q24.6932 71.7287 24.6763 71.5577Q24.6595 71.3868 24.6511 71.2151Q24.6426 71.0435 24.6426 70.8717L24.6426 70.0841Q24.6426 69.9123 24.6511 69.7407Q24.6595 69.5691 24.6763 69.3981Q24.6932 69.2271 24.7184 69.0572Q24.7436 68.8872 24.7771 68.7187Q24.8106 68.5502 24.8524 68.3835Q24.8941 68.2169 24.944 68.0524Q24.9939 67.888 25.0518 67.7262Q25.1097 67.5645 25.1754 67.4057Q25.2412 67.247 25.3146 67.0917Q25.3881 66.9363 25.4691 66.7848Q25.5501 66.6333 25.6384 66.4859Q25.7267 66.3386 25.8222 66.1957Q25.9176 66.0528 26.02 65.9148Q26.1223 65.7768 26.2313 65.644Q26.3403 65.5112 26.4557 65.3839Q26.5711 65.2566 26.6926 65.1351Q26.8141 65.0136 26.9414 64.8982Q27.0687 64.7828 27.2015 64.6738Q27.3343 64.5648 27.4723 64.4625Q27.6103 64.3601 27.7532 64.2647Q27.8961 64.1692 28.0434 64.0809Q28.1908 63.9925 28.3423 63.9116Q28.4939 63.8306 28.6492 63.7571Q28.8045 63.6836 28.9632 63.6179Q29.122 63.5521 29.2837 63.4943Q29.4455 63.4364 29.6099 63.3865Q29.7744 63.3366 29.941 63.2949Q30.1077 63.2531 30.2762 63.2196Q30.4447 63.1861 30.6147 63.1609Q30.7846 63.1357 30.9556 63.1188Q31.1266 63.102 31.2982 63.0936Q31.4698 63.0851 31.6416 63.0851Z" id="Rectangle-2-Copy" fill="#FFFFFF" fill-rule="evenodd" stroke="none" />
        <path d="M46.4271 97.5849L111.286 97.5849Q111.457 97.5849 111.629 97.5933Q111.801 97.6018 111.972 97.6186Q112.143 97.6354 112.313 97.6606Q112.483 97.6858 112.651 97.7194Q112.82 97.7529 112.986 97.7946Q113.153 97.8364 113.317 97.8863Q113.482 97.9361 113.643 97.994Q113.805 98.0519 113.964 98.1176Q114.123 98.1834 114.278 98.2569Q114.433 98.3303 114.585 98.4113Q114.736 98.4923 114.884 98.5806Q115.031 98.669 115.174 98.7644Q115.317 98.8599 115.455 98.9622Q115.593 99.0646 115.726 99.1736Q115.859 99.2826 115.986 99.398Q116.113 99.5133 116.235 99.6348Q116.356 99.7563 116.472 99.8836Q116.587 100.011 116.696 100.144Q116.805 100.277 116.907 100.415Q117.01 100.553 117.105 100.695Q117.201 100.838 117.289 100.986Q117.377 101.133 117.458 101.285Q117.539 101.436 117.613 101.591Q117.686 101.747 117.752 101.905Q117.818 102.064 117.875 102.226Q117.933 102.388 117.983 102.552Q118.033 102.717 118.075 102.883Q118.117 103.05 118.15 103.218Q118.184 103.387 118.209 103.557Q118.234 103.727 118.251 103.898Q118.268 104.069 118.276 104.24Q118.285 104.412 118.285 104.584L118.285 105.371Q118.285 105.543 118.276 105.715Q118.268 105.886 118.251 106.057Q118.234 106.228 118.209 106.398Q118.184 106.568 118.15 106.737Q118.117 106.905 118.075 107.072Q118.033 107.239 117.983 107.403Q117.933 107.568 117.875 107.729Q117.818 107.891 117.752 108.05Q117.686 108.209 117.613 108.364Q117.539 108.519 117.458 108.671Q117.377 108.822 117.289 108.97Q117.201 109.117 117.105 109.26Q117.01 109.403 116.907 109.541Q116.805 109.679 116.696 109.812Q116.587 109.944 116.472 110.072Q116.356 110.199 116.235 110.321Q116.113 110.442 115.986 110.557Q115.859 110.673 115.726 110.782Q115.593 110.891 115.455 110.993Q115.317 111.095 115.174 111.191Q115.031 111.286 114.884 111.375Q114.736 111.463 114.585 111.544Q114.433 111.625 114.278 111.698Q114.123 111.772 113.964 111.838Q113.805 111.903 113.643 111.961Q113.482 112.019 113.317 112.069Q113.153 112.119 112.986 112.161Q112.82 112.202 112.651 112.236Q112.483 112.269 112.313 112.295Q112.143 112.32 111.972 112.337Q111.801 112.354 111.629 112.362Q111.457 112.37 111.286 112.37L46.4271 112.37Q46.2553 112.37 46.0837 112.362Q45.9121 112.354 45.7411 112.337Q45.5701 112.32 45.4002 112.295Q45.2302 112.269 45.0617 112.236Q44.8932 112.202 44.7265 112.161Q44.5598 112.119 44.3954 112.069Q44.231 112.019 44.0692 111.961Q43.9075 111.903 43.7487 111.838Q43.59 111.772 43.4347 111.698Q43.2793 111.625 43.1278 111.544Q42.9763 111.463 42.8289 111.375Q42.6815 111.286 42.5387 111.191Q42.3958 111.095 42.2578 110.993Q42.1198 110.891 41.987 110.782Q41.8542 110.673 41.7269 110.557Q41.5996 110.442 41.4781 110.321Q41.3566 110.199 41.2412 110.072Q41.1258 109.944 41.0168 109.812Q40.9078 109.679 40.8055 109.541Q40.7031 109.403 40.6077 109.26Q40.5122 109.117 40.4239 108.97Q40.3356 108.822 40.2546 108.671Q40.1736 108.519 40.1001 108.364Q40.0266 108.209 39.9609 108.05Q39.8951 107.891 39.8372 107.729Q39.7794 107.568 39.7295 107.403Q39.6796 107.239 39.6379 107.072Q39.5961 106.905 39.5626 106.737Q39.5291 106.568 39.5039 106.398Q39.4787 106.228 39.4618 106.057Q39.445 105.886 39.4366 105.715Q39.4281 105.543 39.4281 105.371L39.4281 104.584Q39.4281 104.412 39.4366 104.24Q39.445 104.069 39.4618 103.898Q39.4787 103.727 39.5039 103.557Q39.5291 103.387 39.5626 103.218Q39.5961 103.05 39.6379 102.883Q39.6796 102.717 39.7295 102.552Q39.7794 102.388 39.8373 102.226Q39.8951 102.064 39.9609 101.905Q40.0266 101.747 40.1001 101.591Q40.1736 101.436 40.2546 101.285Q40.3355 101.133 40.4239 100.986Q40.5122 100.838 40.6077 100.695Q40.7031 100.553 40.8055 100.415Q40.9078 100.277 41.0168 100.144Q41.1258 100.011 41.2412 99.8836Q41.3566 99.7563 41.4781 99.6348Q41.5996 99.5133 41.7269 99.398Q41.8542 99.2826 41.987 99.1736Q42.1198 99.0646 42.2578 98.9622Q42.3958 98.8599 42.5387 98.7644Q42.6815 98.669 42.8289 98.5806Q42.9763 98.4923 43.1278 98.4113Q43.2793 98.3303 43.4347 98.2569Q43.59 98.1834 43.7487 98.1177Q43.9075 98.0519 44.0692 97.994Q44.231 97.9361 44.3954 97.8863Q44.5598 97.8364 44.7265 97.7946Q44.8932 97.7529 45.0617 97.7194Q45.2302 97.6859 45.4002 97.6606Q45.5701 97.6354 45.7411 97.6186Q45.9121 97.6018 46.0837 97.5933Q46.2553 97.5849 46.4271 97.5849Z" id="Rectangle-2-Copy-2" fill="#FFFFFF" fill-rule="evenodd" stroke="none" />
      </g>
    </g>
  </g>
</svg>